<svg xmlns="http://www.w3.org/2000/svg" width="14" height="14" viewBox="0 0 14 14">
  <metadata><?xpacket begin="﻿" id="W5M0MpCehiHzreSzNTczkc9d"?>
<x:xmpmeta xmlns:x="adobe:ns:meta/" x:xmptk="Adobe XMP Core 5.6-c142 79.160924, 2017/07/13-01:06:39        ">
   <rdf:RDF xmlns:rdf="http://www.w3.org/1999/02/22-rdf-syntax-ns#">
      <rdf:Description rdf:about=""/>
   </rdf:RDF>
</x:xmpmeta>
                                                                                                    
                                                                                                    
                                                                                                    
                                                                                                    
                                                                                                    
                                                                                                    
                                                                                                    
                                                                                                    
                                                                                                    
                                                                                                    
                                                                                                    
                                                                                                    
                                                                                                    
                                                                                                    
                                                                                                    
                                                                                                    
                                                                                                    
                                                                                                    
                                                                                                    
                                                                                                    
                           
<?xpacket end="w"?></metadata>
<defs>
    <style>
      .cls-1 {
        fill: #4a4b4b;
        fill-rule: evenodd;
      }
    </style>
  </defs>
  <path class="cls-1" d="M1697,131a7,7,0,1,0,7,7A7.01,7.01,0,0,0,1697,131Zm0,1.5a5.5,5.5,0,1,1-5.5,5.5A5.486,5.486,0,0,1,1697,132.5Zm0,1a0.753,0.753,0,0,0-.75.75V138a0.751,0.751,0,0,0,.37.648l2.82,1.625a0.749,0.749,0,0,0,.75-1.3l-2.44-1.407v-3.32a0.753,0.753,0,0,0-.75-0.75h0Z" transform="translate(-1690 -131)"/>
</svg>
